<?xml version="1.0" encoding="UTF-8"?><svg id="b" xmlns="http://www.w3.org/2000/svg" width="174.0957" height="83.9152" viewBox="0 0 174.0957 83.9152"><defs><style>.d{fill:#fff;}</style></defs><g id="c"><path class="d" d="m13.127,83.9152l-3.3516-10.5273c-.1289-.3867-.3223-1.0742-.3223-1.5039h-.0645c-.043.4297-.2578,1.0742-.4082,1.5254l-3.5449,10.5059h-2.041l-3.3945-14.7812,2.1699-.1719.1504.1074,2.2559,10.5059c.1289.5586.1719.9668.2148,1.5254h.0645c.0859-.5156.2578-.9668.4512-1.5254l3.6309-10.5273h1.7617l3.1797,10.5703c.1504.4941.2793.9668.3652,1.4824h.0645c.0215-.4727.1719-1.0312.2793-1.5254l2.2129-10.5273.1504-.0859,1.7617.1934-3.416,14.7598h-2.1699Z"/><path class="d" d="m26.5225,83.7648l-.1504-.1074-.1504-1.3535h-.1074c-1.2246,1.0098-1.9551,1.5039-3.3516,1.5039-1.5898,0-2.9648-1.1816-2.9648-2.8359,0-2.4707,2.1484-3.5449,6.1445-4.3184v-.5371c0-1.3965-1.0098-2.127-2.2129-2.127-1.1172,0-1.9551.4727-2.5566,1.0098l-.7949-1.3105c.7949-.623,1.8906-1.2461,3.7383-1.2461,2.5352,0,3.6953,1.375,3.6953,3.9316v4.7266l.3438,2.3848-1.6328.2793Zm-.5801-5.8223c-3.2441.4512-4.1465,1.4395-4.1465,2.4922,0,1.1172.752,1.7617,1.8691,1.7617.8164,0,1.6758-.4512,2.2773-1.0527v-3.2012Z"/><path class="d" d="m31.4766,83.5714v-8.3574l-.3223-2.3848,1.6328-.2793.1504.1074.1504,1.3535h.1074c1.0957-1.0742,1.9336-1.5684,3.0723-1.5684.5801,0,1.1387.1934,1.5039.4082l-.8379,1.8691c-.4297-.2793-1.0098-.4727-1.5684-.4727-.7734,0-1.4609.3867-1.9766.9238v8.4004h-1.9121Z"/><path class="d" d="m53.2539,83.5714v-7.0469c0-1.5684-.7949-2.4922-2.2559-2.4922-.9883,0-1.7832.5156-2.4277,1.1816.0215.1719.0215.3438.0215.5156v7.8418h-1.9121v-7.0469c0-1.5684-.7949-2.4922-2.2559-2.4922-.9883,0-1.7617.4727-2.4062,1.1387v8.4004h-1.9121v-8.3574l-.3223-2.3848,1.6328-.2793.1504.1074.1504,1.3535h.1074c.9453-.9453,2.0195-1.5684,3.5234-1.5684,1.2676,0,2.3418.6016,2.8789,1.6543h.0859c1.0098-1.0098,2.0195-1.6543,3.6094-1.6543,1.8262,0,3.2441,1.2461,3.2441,3.2871v7.8418h-1.9121Z"/><path class="d" d="m59.6348,70.423c-1.0098,0-1.2891-.7734-1.2891-1.3105,0-.5586.3438-1.2891,1.3105-1.2891.8594,0,1.3105.5156,1.3105,1.2891,0,.8164-.4941,1.3105-1.332,1.3105Zm-.9668,13.1484v-10.7422l1.7832-.2793.1289.1074v10.9141h-1.9121Z"/><path class="d" d="m69.9922,83.7648l-.1504-.1074-.1504-1.3535h-.1074c-1.2246,1.0098-1.9551,1.5039-3.3516,1.5039-1.5898,0-2.9648-1.1816-2.9648-2.8359,0-2.4707,2.1484-3.5449,6.1445-4.3184v-.5371c0-1.3965-1.0098-2.127-2.2129-2.127-1.1172,0-1.9551.4727-2.5566,1.0098l-.7949-1.3105c.7949-.623,1.8906-1.2461,3.7383-1.2461,2.5352,0,3.6953,1.375,3.6953,3.9316v4.7266l.3438,2.3848-1.6328.2793Zm-.5801-5.8223c-3.2441.4512-4.1465,1.4395-4.1465,2.4922,0,1.1172.752,1.7617,1.8691,1.7617.8164,0,1.6758-.4512,2.2773-1.0527v-3.2012Z"/><path class="d" d="m91.2617,83.6789l-.1504-.1074-5.9082-7.5195h.752c1.8477,0,3.6094-.752,3.6094-2.8789,0-2.2559-1.5898-2.707-3.6738-2.707h-1.2891v13.1055h-2.2129v-14.502h4.2969c2.4062,0,5.2637.5371,5.2637,3.7168,0,2.2129-1.6543,3.5449-3.4805,4.0176l5.4785,6.7031-2.6855.1719Z"/><path class="d" d="m103.4346,82.4113c-.9883.9238-2.3848,1.4609-3.8887,1.4609-3.373,0-5.0273-2.5996-5.0273-5.7363,0-3.1152,1.6328-5.8008,4.8555-5.8008,2.8789,0,4.1895,2.084,4.1895,4.6836,0,.2793-.0215.5586-.043.8379h-7.1113c0,2.9004,1.6543,4.3828,3.5664,4.3828,1.1172,0,2.1055-.5156,2.707-1.0312l.752,1.2031Zm-1.8691-5.8008c.1074-1.8262-.8594-2.9648-2.4492-2.9648-1.6543,0-2.6211,1.3105-2.6641,2.9648h5.1133Z"/><path class="d" d="m108.4961,83.8722c-1.0742,0-2.2129-.2148-3.1152-.7734l.7734-1.4609c.5156.3867,1.5254.7734,2.4492.7734,1.1387,0,2.2344-.4512,2.2344-1.6113,0-.9668-.7305-1.3965-1.7402-1.8477l-1.2891-.5801c-1.2031-.5371-2.1055-1.2891-2.1055-2.7715,0-1.8906,1.6543-3.1582,3.7598-3.1582,1.0742,0,2.0195.2148,2.9004.752l-.7734,1.4395c-.5156-.4297-1.3965-.7949-2.2988-.7949-1.1816,0-1.8262.5586-1.8262,1.3105,0,.8379.752,1.2031,1.6113,1.5898l1.375.623c1.2031.5371,2.1914,1.3535,2.1914,2.9648,0,2.2773-1.998,3.5449-4.1465,3.5449Z"/><path class="d" d="m116.3164,70.423c-1.0098,0-1.2891-.7734-1.2891-1.3105,0-.5586.3438-1.2891,1.3105-1.2891.8594,0,1.3105.5156,1.3105,1.2891,0,.8164-.4941,1.3105-1.332,1.3105Zm-.9668,13.1484v-10.7422l1.7832-.2793.1289.1074v10.9141h-1.9121Z"/><path class="d" d="m127.9902,83.7648l-.1504-.1074-.1504-1.3535h-.1074c-1.2031,1.0098-2.2129,1.5684-3.5234,1.5684-2.6855,0-4.168-2.6426-4.168-5.1562,0-3.5664,2.1699-5.9727,5.7148-5.9727.666,0,1.332.0859,1.7832.1719v-4.9844l1.7832-.2793.1289.1074v13.3418l.3223,2.3848-1.6328.2793Zm-.6016-8.959c-.5156-.3867-1.3965-.6445-2.1699-.6445-2.1699,0-3.2871,1.6113-3.2871,4.0391,0,2.0195.9668,4.0176,3.0078,4.0176,1.0312,0,1.7617-.4297,2.4492-1.0742v-6.3379Z"/><path class="d" d="m140.8594,82.4113c-.9883.9238-2.3848,1.4609-3.8887,1.4609-3.373,0-5.0273-2.5996-5.0273-5.7363,0-3.1152,1.6328-5.8008,4.8555-5.8008,2.8789,0,4.1895,2.084,4.1895,4.6836,0,.2793-.0215.5586-.043.8379h-7.1113c0,2.9004,1.6543,4.3828,3.5664,4.3828,1.1172,0,2.1055-.5156,2.707-1.0312l.752,1.2031Zm-1.8691-5.8008c.1074-1.8262-.8594-2.9648-2.4492-2.9648-1.6543,0-2.6211,1.3105-2.6641,2.9648h5.1133Z"/><path class="d" d="m150.8516,83.5714v-7.0469c0-1.5684-.8594-2.4922-2.4492-2.4922-1.0742,0-1.9121.4727-2.6211,1.1387v8.4004h-1.9121v-8.3574l-.3223-2.3848,1.6328-.2793.1504.1074.1504,1.3535h.1074c1.0312-.9453,2.127-1.5684,3.7383-1.5684,1.9551,0,3.4375,1.2461,3.4375,3.2871v7.8418h-1.9121Z"/><path class="d" d="m163.8076,82.3683c-.666.666-1.9551,1.5039-3.7598,1.5039-2.4922,0-4.748-2.0195-4.748-5.6289,0-3.6738,2.6426-5.8008,5.4141-5.8008,1.2246,0,2.2344.3223,2.8574.666l-.752,1.6758c-.5156-.3867-1.4395-.7949-2.3633-.7949-2.2559,0-3.1152,1.9336-3.1152,3.9102s.9668,4.2969,3.3086,4.2969c.9668,0,1.8047-.5156,2.3633-1.0312l.7949,1.2031Z"/><path class="d" d="m173.9668,82.4113c-.9883.9238-2.3848,1.4609-3.8887,1.4609-3.373,0-5.0273-2.5996-5.0273-5.7363,0-3.1152,1.6328-5.8008,4.8555-5.8008,2.8789,0,4.1895,2.084,4.1895,4.6836,0,.2793-.0215.5586-.043.8379h-7.1113c0,2.9004,1.6543,4.3828,3.5664,4.3828,1.1172,0,2.1055-.5156,2.707-1.0312l.752,1.2031Zm-1.8691-5.8008c.1074-1.8262-.8594-2.9648-2.4492-2.9648-1.6543,0-2.6211,1.3105-2.6641,2.9648h5.1133Z"/><path class="d" d="m120.4219,35.3894l16.4533-17.7395-4.3652-4.0479-16.1475,17.4106-9.3568-10.0865-.9675-1.0429,5.8604-6.3174-4.3652-4.0479-5.5546,5.9884L87.5969,0l-14.3826,15.5063-5.5539-5.9883-4.3652,4.0479,5.8593,6.3173-10.3232,11.1299-16.1503-17.411-4.3633,4.0479,16.4542,17.7396h-.0001s18.4424,19.8829,18.4424,19.8829l14.3827-15.506v.0002s.0002,0,.0002,0l14.3818,15.5059,14.3838-15.5063h0l.4518-.4871,3.6078-3.8893-.0002-.0002Zm-22.5027-15.5061l-10.3223,11.1294-5.1616-5.5647-5.1615-5.5648,10.3231-11.1293,10.3223,11.1294Zm-24.7051,26.6362l-10.3232-11.1299,10.3232-11.1294,5.1616,5.5647,5.1615,5.5648-10.3231,11.1298Zm28.7646,0l-10.3223-11.1299,5.1611-5.5647,5.1611-5.5647,9.3568,10.0865.9675,1.0429-10.3242,11.1299Z"/></g></svg>